<?xml version="1.0" encoding="utf-8"?>
<!-- Generator: Adobe Illustrator 16.0.0, SVG Export Plug-In . SVG Version: 6.00 Build 0)  -->
<!DOCTYPE svg PUBLIC "-//W3C//DTD SVG 1.1//EN" "http://www.w3.org/Graphics/SVG/1.1/DTD/svg11.dtd">
<svg version="1.1" id="Layer_4" xmlns="http://www.w3.org/2000/svg" xmlns:xlink="http://www.w3.org/1999/xlink" x="0px" y="0px"
	 width="512px" height="512px" viewBox="0 0 512 512" enable-background="new 0 0 512 512" xml:space="preserve">
<g>
	<path fill-rule="evenodd" clip-rule="evenodd" d="M256,1.482C115.434,1.482,1.482,115.434,1.482,256S115.434,510.518,256,510.518
		c140.565,0,254.519-113.951,254.519-254.518S396.565,1.482,256,1.482z M414,418H98V212.934c0,0,7.464,1.732,10.407,1.732
		c11.439,0,21.854-4.664,29.425-12.191c2.75-2.736,5.394-5.65,7.303-9.059c1.909,3.401,3.988,6.331,6.731,9.059
		c7.567,7.533,18,12.191,29.448,12.191c11.439,0,21.816-4.664,29.387-12.191c2.755-2.736,5.144-5.831,7.058-9.24
		c1.906,3.4,4.245,6.512,6.993,9.24c7.566,7.533,18.004,12.191,29.451,12.191c11.441,0,21.881-4.668,29.452-12.191
		c2.751-2.738,5.081-5.831,6.994-9.24c1.907,3.4,4.315,6.506,7.059,9.24c7.567,7.533,18.004,12.191,29.451,12.191
		c11.44,0,21.816-4.668,29.389-12.191c2.749-2.738,5.145-5.829,7.058-9.24c1.907,3.403,4.251,6.506,6.994,9.24
		c7.571,7.533,17.946,12.191,29.4,12.191c5.357,0,9-1.032,14-2.888V418z M401.22,202.667c-20.052,0-37.351-16.904-37.351-36.959
		c0,20.056-15.592,36.959-35.647,36.959c-20.052,0-36.271-16.904-36.271-36.959c0,20.056-16.66,36.959-36.711,36.959
		c-20.057,0-37.224-16.904-37.222-36.959c0,20.056-15.622,36.959-35.678,36.959s-36.19-16.904-36.19-36.959
		c-0.002,20.056-16.853,36.959-36.909,36.959c-16.703,0-35.24-17.588-35.24-37.601v-15.785l47.367-55.439
		c0,0,175.469-0.238,265.088,0L438,149.282v16.426C438,185.764,421.275,202.667,401.22,202.667z"/>
	<path fill-rule="evenodd" clip-rule="evenodd" d="M392.416,347.026l-17.967-65.693c-7.517-27.487-31.605-49.855-53.514-49.855
		c-13.792,0-23.541,8.522-27.014,22.522h-76.229c-3.475-14-13.287-22.522-27.078-22.522c-21.912,0-45.994,22.432-53.514,49.919
		l-17.967,65.609c-7.52,27.489,4.268,50.073,26.18,50.073c19.238,0,40.142-17.08,50.049-40.08h120.824
		c9.907,23,30.815,40.064,50.049,40.064C388.148,397.064,399.936,374.516,392.416,347.026z M280,317v29h-50v-29h-25.488
		l25.747-27.549l25.74-27.578l25.743,27.562L307.489,317H280z"/>
</g>
</svg>
