<svg version="1.1" xmlns="http://www.w3.org/2000/svg" xmlns:xlink="http://www.w3.org/1999/xlink" viewBox="0 0 512 512">
<path fill-rule="evenodd" clip-rule="evenodd" d="M 510.518 256 C 510.518 396.567 396.564 510.518 255.999 510.518 C 115.433 510.518 1.481 396.566 1.481 256 C 1.481 115.434 115.433 1.482 255.999 1.482 C 396.564 1.482 510.518 115.433 510.518 256 Z M 318.299 193.37 C 261.998 137.069 187.086 106.062 107.364 106.062 L 107.364 164.72 C 171.418 164.72 231.6 189.625 276.823 234.847 C 322.045 280.07 346.951 340.252 346.951 404.306 L 405.608 404.306 C 405.607 324.584 374.6 249.671 318.299 193.37 Z M 148.405 321.913 C 125.202 321.913 106.393 340.722 106.393 363.925 C 106.393 387.128 125.202 405.937 148.405 405.937 C 171.608 405.937 190.417 387.128 190.417 363.925 C 190.417 340.722 171.608 321.913 148.405 321.913 Z M 106.756 205.324 L 106.756 263.981 C 184.131 263.981 247.081 326.93 247.081 404.307 L 305.738 404.307 C 305.738 294.587 216.476 205.324 106.756 205.324 Z"></path>
</svg>
