<?xml version="1.0" encoding="utf-8"?>
<!-- Generator: Adobe Illustrator 16.0.0, SVG Export Plug-In . SVG Version: 6.00 Build 0)  -->
<!DOCTYPE svg PUBLIC "-//W3C//DTD SVG 1.1//EN" "http://www.w3.org/Graphics/SVG/1.1/DTD/svg11.dtd">
<svg version="1.1" id="Layer_4" xmlns="http://www.w3.org/2000/svg" xmlns:xlink="http://www.w3.org/1999/xlink" x="0px" y="0px"
	 width="512px" height="512px" viewBox="0 0 512 512" enable-background="new 0 0 512 512" xml:space="preserve">
<path fill-rule="evenodd" clip-rule="evenodd" d="M256,1.482C115.434,1.482,1.482,115.434,1.482,256S115.434,510.518,256,510.518
	c140.565,0,254.519-113.951,254.519-254.518S396.565,1.482,256,1.482z M402.012,181.194c0.148,3.233,0.148,6.466,0.148,9.7
	c0,99.497-75.836,214.425-214.426,214.425c-42.474,0-82.154-12.492-115.369-33.655c5.879,0.734,11.904,1.028,17.93,1.028
	c35.271,0,67.752-12.05,93.617-32.332c-32.92-0.588-60.844-22.34-70.396-52.32c4.557,0.882,9.26,1.323,14.108,1.323
	c6.907,0,13.49-0.883,19.81-2.646C113.043,279.809,87,249.239,87,212.792c0-0.441,0-0.735,0-1.029
	c10,5.584,21.781,8.964,34.127,9.406c-20.135-13.521-33.493-36.595-33.493-62.755c0-13.814,3.683-26.748,10.148-37.917
	c37.183,45.56,92.74,75.688,155.349,78.774c-1.176-5.584-1.909-11.316-1.909-17.195c0-41.592,33.803-75.394,75.395-75.394
	c21.605,0,41.151,9.112,54.968,23.809c17.193-3.38,33.36-9.553,47.91-18.224c-5.732,17.636-17.636,32.48-33.215,41.739
	c15.285-1.911,29.835-5.879,43.355-11.904C429.494,157.238,416.709,170.612,402.012,181.194z"/>
</svg>
