<?xml version="1.0" encoding="utf-8"?>
<!-- Generator: Adobe Illustrator 16.0.0, SVG Export Plug-In . SVG Version: 6.00 Build 0)  -->
<!DOCTYPE svg PUBLIC "-//W3C//DTD SVG 1.1//EN" "http://www.w3.org/Graphics/SVG/1.1/DTD/svg11.dtd">
<svg version="1.1" id="Layer_4" xmlns="http://www.w3.org/2000/svg" xmlns:xlink="http://www.w3.org/1999/xlink" x="0px" y="0px"
	 width="512px" height="512px" viewBox="0 0 512 512" enable-background="new 0 0 512 512" xml:space="preserve">
<g>
	<path fill-rule="evenodd" clip-rule="evenodd" d="M257,303.137c-4.674,0-9.348-1.631-13.107-4.894L129,198.553V337h254V200.288
		l-112.893,97.955C266.348,301.506,261.674,303.137,257,303.137z"/>
	<path fill-rule="evenodd" clip-rule="evenodd" d="M256,1.482C115.434,1.482,1.482,115.434,1.482,256S115.434,510.518,256,510.518
		c140.565,0,254.519-113.951,254.519-254.518S396.565,1.482,256,1.482z M423,350.5c0,13.807-9.693,26.5-23.5,26.5h-284
		c-13.807,0-26.5-12.693-26.5-26.5v-192c0-13.807,12.693-23.5,26.5-23.5h284c13.807,0,23.5,9.693,23.5,23.5V350.5z"/>
	<polygon fill-rule="evenodd" clip-rule="evenodd" points="351.11,175 162.89,175 257,256.658 	"/>
</g>
</svg>
