<?xml version="1.0" encoding="utf-8"?>
<!-- Generator: Adobe Illustrator 16.0.0, SVG Export Plug-In . SVG Version: 6.00 Build 0)  -->
<!DOCTYPE svg PUBLIC "-//W3C//DTD SVG 1.1//EN" "http://www.w3.org/Graphics/SVG/1.1/DTD/svg11.dtd">
<svg version="1.1" id="Layer_4" xmlns="http://www.w3.org/2000/svg" xmlns:xlink="http://www.w3.org/1999/xlink" x="0px" y="0px"
	 width="512px" height="512px" viewBox="0 0 512 512" enable-background="new 0 0 512 512" xml:space="preserve">
  <path d="M 0.967 0.967 L 511.999 0.966 L 512.967 511.999 L 0 512.967 L 0.967 0.967 Z M 423.313 194.404 C 423.313 116.577 372.323 93.764 372.323 93.764 C 346.612 81.957 302.464 76.991 256.597 76.615 L 255.469 76.615 C 209.603 76.991 165.484 81.957 139.772 93.764 C 139.772 93.764 88.779 116.577 88.779 194.404 C 88.779 212.227 88.431 233.536 88.995 256.132 C 90.848 332.244 102.95 407.255 173.32 425.881 C 205.766 434.469 233.624 436.267 256.06 435.034 C 296.746 432.778 319.587 420.515 319.587 420.515 L 318.244 390.994 C 318.244 390.994 289.169 400.162 256.516 399.044 C 224.164 397.936 190.011 395.556 184.778 355.836 C 184.296 352.346 184.054 348.616 184.054 344.698 C 184.054 344.698 215.812 352.46 256.06 354.306 C 280.67 355.435 303.749 352.863 327.188 350.065 C 372.142 344.698 411.283 317.001 416.202 291.693 C 423.952 251.825 423.313 194.404 423.313 194.404 Z M 363.165 200.442 L 363.165 294.679 L 325.831 294.679 L 325.831 203.212 C 325.831 183.932 317.718 174.144 301.492 174.144 C 283.55 174.144 274.558 185.754 274.558 208.709 L 274.558 258.775 L 237.443 258.775 L 237.443 208.709 C 237.443 185.754 228.451 174.144 210.507 174.144 C 194.281 174.144 186.168 183.932 186.168 203.212 L 186.168 294.679 L 148.834 294.679 L 148.834 200.442 C 148.834 181.182 153.739 165.878 163.589 154.554 C 173.744 143.232 187.048 137.427 203.562 137.427 C 222.667 137.427 237.134 144.77 246.7 159.458 L 256 175.047 L 265.301 159.458 C 274.866 144.77 289.332 137.427 308.44 137.427 C 324.952 137.427 338.253 143.232 348.413 154.554 C 358.262 165.878 363.165 181.182 363.165 200.442 Z"/>
</svg>

