<?xml version="1.0" encoding="utf-8"?>
<!-- Generator: Adobe Illustrator 16.0.0, SVG Export Plug-In . SVG Version: 6.00 Build 0)  -->
<!DOCTYPE svg PUBLIC "-//W3C//DTD SVG 1.1//EN" "http://www.w3.org/Graphics/SVG/1.1/DTD/svg11.dtd">
<svg version="1.1" id="Layer_4" xmlns="http://www.w3.org/2000/svg" xmlns:xlink="http://www.w3.org/1999/xlink" x="0px" y="0px"
	 width="512px" height="512px" viewBox="0 0 512 512" enable-background="new 0 0 512 512" xml:space="preserve">
<path fill-rule="evenodd" clip-rule="evenodd" d="M510.519,256C510.519,115.434,396.565,1.482,256,1.482
	C115.433,1.482,1.482,115.434,1.482,256c0,113.023,73.678,208.822,175.619,242.032c11.515,1.39,15.774-6.066,15.774-12.524
	c0-6.049-0.221-22.088-0.344-43.351c-70.88,15.396-85.835-34.158-85.835-34.158c-11.587-29.421-28.291-37.272-28.291-37.272
	c-23.136-15.795,1.75-15.49,1.75-15.49c25.571,1.803,39.029,26.273,39.029,26.273c22.731,38.924,59.637,27.681,74.157,21.175
	c2.315-16.47,8.898-27.711,16.177-34.067c-56.582-6.447-116.065-28.291-116.065-125.942c0-27.817,9.929-50.563,26.228-68.375
	c-2.62-6.447-11.366-32.354,2.498-67.436c0,0,21.394-6.851,70.07,26.122c20.325-5.653,42.124-8.479,63.792-8.578
	c21.646,0.099,43.429,2.925,63.792,8.578c48.653-32.973,70.011-26.122,70.011-26.122c13.899,35.081,5.147,60.989,2.535,67.436
	c16.313,17.812,26.183,40.557,26.183,68.375c0,97.896-59.576,119.434-116.343,125.729c9.151,7.884,17.292,23.435,17.292,47.203
	c0,34.064-0.304,61.531-0.304,69.901c0,6.471,4.138,13.925,15.634,12.543C436.812,464.857,510.519,369.044,510.519,256z"/>
</svg>
